<?xml version="1.0" encoding="utf-8"?>
<?xml-stylesheet type="text/xsl" href="rss1.xsl"?>
<rss version="2.0" xmlns:atom="http://www.w3.org/2005/Atom" xmlns:content="http://purl.org/rss/1.0/modules/content/" xmlns:dc="http://purl.org/dc/elements/1.1/" xmlns:media="http://search.yahoo.com/mrss/">
<channel>
 <title>Getty</title>
 <link>http://www.gettyimg.com/</link>
 <atom:link href="http://www.gettyimg.com/" rel="self" type="application/rss+xml" />

 
                <item>
                <title><![CDATA[【Albums (lossless)】FLAC - [REQ] Please can someone share me the 24bit of the following album that i'm mentioning here(it's a qobuz link)]]></title>
                <link><![CDATA[https://sharemania.us/threads/req-please-can-someone-share-me-the-24bit-of-the-following-album-that-im-mentioning-here-its-a-qobuz-link.237584/]]></link>
                <description><![CDATA[<article>
<blockquote class="messageText SelectQuoteContainer ugc baseHtml">
<a href="https://www.qobuz.com/us-en/album/love-me-back-fayahh-beat-trinidad-cardona-robinson/olzwjliwijdkc" target="_blank" class="externalLink" rel="nofollow">https://www.qobuz.com/us-en/album/love-me-back-fayahh-beat-trinidad-cardona-robinson/olzwjliwijdkc</a>
<div class="messageTextEndMarker">&nbsp;</div>
</blockquote>
</article>]]></description>
                <author><![CDATA[Samhorny666]]></author>
                </item>

                
                <item>
                <title><![CDATA[【Cinema Center】MOVIE - Strike.Up.the.Band.1940.1080p.HULU.WEB-DL.AAC2.0.H.264-Samuel]]></title>
                <link><![CDATA[https://sharemania.us/threads/strike-up-the-band-1940-1080p-hulu-web-dl-aac2-0-h-264-samuel.237583/]]></link>
                <description><![CDATA[<article>
<blockquote class="messageText SelectQuoteContainer ugc baseHtml">
<div style="text-align: center"><b><span style="font-size: 26px">Strike Up the Band</span></b><br>
<img src="https://i.imgur.com/SbBWt1M.jpeg" class="bbCodeImage LbImage" alt="[​IMG]" data-url="https://i.imgur.com/SbBWt1M.jpeg" style=""><br>
<b><a href="https://i.imgur.com/zmFCcOU.jpeg" target="_blank" class="externalLink" rel="nofollow">Alternate Artwork</a></b> | <b><a href="https://i.imgur.com/lnXWPu2.jpeg" target="_blank" class="externalLink" rel="nofollow">Poster</a></b> | <b><a href="https://i.imgur.com/V40dKU4.jpeg" target="_blank" class="externalLink" rel="nofollow">Thumbnail</a></b> | <b><a href="https://i.imgur.com/AOICpZd.jpeg" target="_blank" class="externalLink" rel="nofollow">Key Art</a></b><br>
<br>
<b>Starring:</b> Mickey Rooney, Judy Garland • <b>Director:</b> Busby Berkeley<br>
TVG • Comedy, Musicals • Movie • 1940<br>
<br>
<div class="bbCodeBlock bbCodeQuote">
<aside>
<blockquote class="quoteContainer"><div class="quote"><b><span style="font-size: 15px"><span style="font-family: 'Arial'">Description</span></span></b><br>
A high-school band sets out to win a national radio contest.</div><div class="quoteExpand">Click to expand...</div></blockquote>
</aside>
</div>
<div class="bbCodeBlock bbCodeQuote">
<aside>
<blockquote class="quoteContainer"><div class="quote"><b><span style="font-size: 15px"><span style="font-family: 'Arial'">More Information</span></span></b><br>
TVG • Comedy, Musicals, Music, Classics, Romance • Movie (1940)</div><div class="quoteExpand">Click to expand...</div></blockquote>
</aside>
</div>
<div class="bbCodeBlock bbCodeQuote">
<aside>
<blockquote class="quoteContainer"><div class="quote"><b><span style="font-size: 15px">Source</span></b><br>
<img src="https://i.imgur.com/4uiLEFv.png" class="bbCodeImage LbImage" alt="[​IMG]" data-url="https://i.imgur.com/4uiLEFv.png" style=""></div><div class="quoteExpand">Click to expand...</div></blockquote>
</aside>
</div>
<div class="bbCodeBlock bbCodeQuote">
<aside>
<blockquote class="quoteContainer"><div class="quote"><b><span style="font-size: 15px">Release Name</span></b><br>
Strike.Up.the.Band.1940.1080p.HULU.WEB-DL.AAC2.0.H.264-Samuel</div><div class="quoteExpand">Click to expand...</div></blockquote>
</aside>
</div>
<div class="ToggleTriggerAnchor bbCodeSpoilerContainer">
<button type="button" class="button bbCodeSpoilerButton ToggleTrigger Tooltip JsOnly" data-target="> .SpoilerTarget"><span>Spoiler: <span class="SpoilerTitle">Media Information</span></span></button>
<div class="SpoilerTarget bbCodeSpoilerText">General<br>
Complete name : Strike.Up.the.Band.1940.1080p.HULU.WEB-DL.AAC2.0.H.264-Samuel.mkv<br>
Format : Matroska<br>
Format version : Version 4<br>
File size : 5.75 GiB<br>
Duration : 2 h 0 min<br>
Overall bit rate : 6 851 kb/s<br>
Frame rate : 59.940 FPS<br>
Encoded date : 2024-01-21 19:15:46 UTC<br>
Writing application : mkvmerge v82.0 ('I'm The President') 64-bit<br>
Writing library : libebml v1.4.5 + libmatroska v1.7.1<br>
<br>
Video<br>
ID : 1<br>
Format : AVC<br>
Format/Info : Advanced Video Codec<br>
Format profile : High@L4.2<br>
Format settings : CABAC / 4 Ref Frames<br>
Format settings, CABAC : Yes<br>
Format settings, Reference frames : 4 frames<br>
Codec ID : V_MPEG4/ISO/AVC<br>
Duration : 2 h 0 min<br>
Bit rate : 6 783 kb/s<br>
Width : 1 920 pixels<br>
Height : 1 080 pixels<br>
Display aspect ratio : 16:9<br>
Frame rate mode : Constant<br>
Frame rate : 59.940 (60000/1001) FPS<br>
Color space : YUV<br>
Chroma subsampling : 4:2:0<br>
Bit depth : 8 bits<br>
Scan type : Progressive<br>
Bits/(Pixel*Frame) : 0.055<br>
Stream size : 5.70 GiB (99%)<br>
Default : Yes<br>
Forced : No<br>
<br>
Audio<br>
ID : 2<br>
Format : AAC LC SBR<br>
Format/Info : Advanced Audio Codec Low Complexity with Spectral Band Replication<br>
Commercial name : HE-AAC<br>
Format settings : Explicit<br>
Codec ID : A_AAC-2<br>
Duration : 2 h 0 min<br>
Bit rate : 64.0 kb/s<br>
Channel(s) : 2 channels<br>
Channel layout : L R<br>
Sampling rate : 48.0 kHz<br>
Frame rate : 23.438 FPS (2048 SPF)<br>
Compression mode : Lossy<br>
Stream size : 55.0 MiB (1%)<br>
Language : English<br>
Default : Yes<br>
Forced : No<br>
<br>
Text<br>
ID : 3<br>
Format : UTF-8<br>
Codec ID : S_TEXT/UTF8<br>
Codec ID/Info : UTF-8 Plain Text<br>
Duration : 1 h 57 min<br>
Bit rate : 82 b/s<br>
Frame rate : 0.311 FPS<br>
Count of elements : 2189<br>
Stream size : 70.7 KiB (0%)<br>
Title : SDH<br>
Language : English<br>
Default : No<br>
Forced : No</div>
</div><br>
<b>Screenshots</b><br>
<img src="https://i.imgur.com/83NWWeF.png" class="bbCodeImage LbImage" alt="[​IMG]" data-url="https://i.imgur.com/83NWWeF.png" style=""><br>
<br>
<b>Download</b><br>
<div class="bbCodeBlock bbCodeVfcHH HiddenContent">
<div class="attribution type">Hidden Content:</div>
<blockquote>You must reply before you can see the hidden data contained here.</blockquote>
</div></div>
<div class="messageTextEndMarker">&nbsp;</div>
</blockquote>
</article>]]></description>
                <author><![CDATA[Samuel]]></author>
                </item>

                </channel></rss>